<?xml version="1.0" encoding="iso-8859-1"?><!DOCTYPE svg PUBLIC "-//W3C//DTD SVG 1.1//EN" "http://www.w3.org/Graphics/SVG/1.1/DTD/svg11.dtd"><svg viewBox="0 0 80 80" xmlns="http://www.w3.org/2000/svg" xmlns:xlink="http://www.w3.org/1999/xlink"><style>:root>svg{display:none}:root>svg:target{display:block}</style><svg fill="#fff" viewBox="0 0 173.331 173.331" xml:space="preserve" id="film-roll-svgrepo-com" xmlns="http://www.w3.org/2000/svg"><path d="M126.46 167.082c-26.282 0-46.87-9.9-46.87-22.538v-4.862H2.5a2.5 2.5 0 0 1-2.5-2.5V29.834a2.5 2.5 0 0 1 2.5-2.5h77.09V21.81c0-10.216 23.579-15.561 46.87-15.561 23.292 0 46.871 5.345 46.871 15.561v122.734c0 12.638-20.588 22.538-46.871 22.538zM84.59 29.22v115.324c0 8.47 16.824 17.538 41.87 17.538s41.871-9.068 41.871-17.538V29.22c-8.151 5.374-25.086 8.15-41.871 8.15s-33.719-2.776-41.87-8.15zM5 134.682h74.59v-20.227H20.652c-5.986 0-10.857-4.871-10.857-10.857V62.614c0-5.987 4.871-10.857 10.857-10.857H79.59V32.334H5v102.348zm15.652-77.926a5.864 5.864 0 0 0-5.857 5.857v40.984a5.864 5.864 0 0 0 5.857 5.857H79.59V56.756H20.652zM126.46 11.249c-25.56 0-41.87 6.255-41.87 10.561s16.311 10.561 41.87 10.561 41.871-6.255 41.871-10.561-16.311-10.561-41.871-10.561zM91.516 142.366a2.5 2.5 0 0 1-2.5-2.5V39.675a2.5 2.5 0 1 1 5 0v100.191a2.5 2.5 0 0 1-2.5 2.5zm-18.379-10.333H62.134a2.5 2.5 0 0 1-2.5-2.5v-9.661a2.5 2.5 0 0 1 2.5-2.5h11.003a2.5 2.5 0 0 1 2.5 2.5v9.661a2.5 2.5 0 0 1-2.5 2.5zm-8.503-5h6.003v-4.661h-6.003v4.661zm-16.838 5H36.793a2.5 2.5 0 0 1-2.5-2.5v-9.661a2.5 2.5 0 0 1 2.5-2.5h11.003a2.5 2.5 0 0 1 2.5 2.5v9.661a2.5 2.5 0 0 1-2.5 2.5zm-8.503-5h6.003v-4.661h-6.003v4.661zm-16.838 5H11.452a2.5 2.5 0 0 1-2.5-2.5v-9.661a2.5 2.5 0 0 1 2.5-2.5h11.003a2.5 2.5 0 0 1 2.5 2.5v9.661a2.5 2.5 0 0 1-2.5 2.5zm-8.503-5h6.003v-4.661h-6.003v4.661zm59.185-77.926H62.134a2.5 2.5 0 0 1-2.5-2.5v-9.661a2.5 2.5 0 0 1 2.5-2.5h11.003a2.5 2.5 0 0 1 2.5 2.5v9.661a2.5 2.5 0 0 1-2.5 2.5zm-8.503-5h6.003v-4.661h-6.003v4.661zm-16.838 5H36.793a2.5 2.5 0 0 1-2.5-2.5v-9.661a2.5 2.5 0 0 1 2.5-2.5h11.003a2.5 2.5 0 0 1 2.5 2.5v9.661a2.5 2.5 0 0 1-2.5 2.5zm-8.503-5h6.003v-4.661h-6.003v4.661zm-16.838 5H11.452a2.5 2.5 0 0 1-2.5-2.5v-9.661a2.5 2.5 0 0 1 2.5-2.5h11.003a2.5 2.5 0 0 1 2.5 2.5v9.661a2.5 2.5 0 0 1-2.5 2.5zm-8.503-5h6.003v-4.661h-6.003v4.661zM126.46 28.756c-5.085 0-21.677-.501-21.677-6.946s16.592-6.946 21.677-6.946 21.677.501 21.677 6.946-16.592 6.946-21.677 6.946zm-15.448-6.946c2.478.901 7.803 1.946 15.448 1.946s12.971-1.045 15.448-1.946c-2.478-.901-7.803-1.946-15.448-1.946s-12.971 1.044-15.448 1.946z"/></svg></svg>